<?xml version="1.0" encoding="UTF-8" standalone="no"?>
<!-- Created with Inkscape (http://www.inkscape.org/) -->

<svg
   width="32.178688mm"
   height="32.181812mm"
   viewBox="0 0 32.178688 32.181812"
   version="1.1"
   id="svg1"
   xml:space="preserve"
   inkscape:version="1.4 (e7c3feb100, 2024-10-09)"
   sodipodi:docname="faq.svg"
   xmlns:inkscape="http://www.inkscape.org/namespaces/inkscape"
   xmlns:sodipodi="http://sodipodi.sourceforge.net/DTD/sodipodi-0.dtd"
   xmlns="http://www.w3.org/2000/svg"
   xmlns:svg="http://www.w3.org/2000/svg"><sodipodi:namedview
     id="namedview1"
     pagecolor="#ffffff"
     bordercolor="#999999"
     borderopacity="1"
     inkscape:showpageshadow="0"
     inkscape:pageopacity="0"
     inkscape:pagecheckerboard="0"
     inkscape:deskcolor="#d1d1d1"
     inkscape:document-units="mm"
     inkscape:zoom="4.6213511"
     inkscape:cx="76.492782"
     inkscape:cy="65.889822"
     inkscape:window-width="1920"
     inkscape:window-height="1014"
     inkscape:window-x="0"
     inkscape:window-y="0"
     inkscape:window-maximized="1"
     inkscape:current-layer="layer1"
     showgrid="false" /><defs
     id="defs1" /><g
     inkscape:label="Ebene 1"
     inkscape:groupmode="layer"
     id="layer1"
     transform="translate(-41.93681,-39.901605)"><path
       style="fill:#ffffff;stroke:none;stroke-width:0.0543216"
       d="m 57.487183,72.079775 c -0.536913,-0.02657 -0.925493,-0.05674 -1.286347,-0.09978 -2.440952,-0.291323 -4.745947,-1.12902 -6.834167,-2.483718 -1.312561,-0.851509 -2.525625,-1.915944 -3.562242,-3.125793 -1.724155,-2.012289 -2.947864,-4.459726 -3.508146,-7.016353 -0.252115,-1.150421 -0.359471,-2.154834 -0.359471,-3.363185 0,-0.605978 0.01038,-0.881701 0.05032,-1.336653 0.229513,-2.614398 1.082823,-5.080834 2.533469,-7.322829 0.841549,-1.300626 1.917658,-2.526902 3.126022,-3.562241 2.012286,-1.724159 4.459724,-2.947863 7.016349,-3.508148 1.150422,-0.252117 2.154836,-0.35947 3.363185,-0.35947 0.718424,0 1.071207,0.01795 1.703152,0.08672 2.636432,0.286858 5.201087,1.257413 7.416255,2.806575 1.177325,0.823353 2.290314,1.844498 3.213565,2.948393 1.821843,2.178299 3.046502,4.796586 3.525965,7.53842 0.166544,0.95239 0.230407,1.703312 0.230407,2.709231 0,0.605977 -0.01038,0.881707 -0.05032,1.336653 -0.257749,2.936042 -1.320676,5.729723 -3.095121,8.134887 -0.748812,1.014969 -1.716794,2.042254 -2.696249,2.861431 -1.532833,1.282002 -3.303938,2.281491 -5.166946,2.915878 -1.32574,0.451442 -2.620349,0.711953 -4.038697,0.812699 -0.292829,0.02077 -1.345049,0.03893 -1.580985,0.02727 z m 11.924463,-7.221067 0.0758,-0.09695 c 0.236575,-0.302586 0.610391,-0.854703 0.858736,-1.268316 1.347436,-2.244149 2.052374,-4.821068 2.052374,-7.502492 0,-2.681421 -0.704938,-5.25834 -2.052374,-7.502489 -0.890865,-1.483728 -2.059585,-2.800216 -3.437766,-3.872423 -1.950039,-1.517098 -4.312651,-2.508695 -6.798235,-2.853242 -4.13895,-0.573724 -8.251208,0.573292 -11.357982,3.168037 -0.629959,0.526137 -1.260028,1.156208 -1.786165,1.786165 -1.698324,2.033457 -2.799767,4.533207 -3.168033,7.189931 -0.499205,3.601331 0.301386,7.198942 2.254863,10.132674 0.190598,0.286236 0.566573,0.811893 0.585373,0.818415 l 1.255972,1.422421 0.226001,0.210819 c 1.775735,1.656493 3.830046,2.78723 6.18344,3.403516 1.364727,0.357371 2.933088,0.520464 4.369267,0.454345 l 4e-6,3.2e-5 c 2.065059,-0.09507 3.980705,-0.575391 5.758473,-1.443843 1.30096,-0.635532 2.425392,-1.410918 3.500701,-2.414017 l 0.226002,-0.21082"
       id="path1"
       sodipodi:nodetypes="ccsssscscsscsssscsssccccscssccscssccscccssc" /><path
       style="font-size:29.1769px;line-height:1.25;font-family:'Droid Sans';-inkscape-font-specification:'Droid Sans';letter-spacing:0px;word-spacing:0px;fill:#ffffff;stroke-width:1.82356"
       d="m 56.031638,60.451674 v -0.527122 q 0,-0.812052 0.09973,-1.467393 0.113972,-0.65534 0.384656,-1.225201 0.284931,-0.569862 0.755067,-1.11123 0.470135,-0.555615 1.182462,-1.153969 0.683834,-0.584108 1.168216,-1.054244 0.484382,-0.484382 0.783559,-0.968764 0.313424,-0.498629 0.455889,-1.054244 0.156712,-0.569861 0.156712,-1.324927 0,-0.683834 -0.213698,-1.239449 -0.213698,-0.569861 -0.626847,-0.968764 -0.398903,-0.413149 -1.011504,-0.626847 -0.598355,-0.227945 -1.396161,-0.227945 -1.182462,0 -2.250952,0.37041 -1.06849,0.37041 -2.065747,0.854792 L 52.555484,46.66103 q 1.153969,-0.598355 2.493143,-1.011504 1.339175,-0.427396 2.721088,-0.427396 1.324928,0 2.379171,0.37041 1.06849,0.356163 1.80931,1.039997 0.74082,0.683833 1.139723,1.681091 0.398903,0.98301 0.398903,2.222459 0,0.954518 -0.199452,1.709584 -0.185205,0.74082 -0.569861,1.381914 -0.384656,0.641094 -0.954518,1.239448 -0.569861,0.598354 -1.339174,1.267941 -0.74082,0.641094 -1.210955,1.125477 -0.470136,0.470135 -0.74082,0.926024 -0.270684,0.441643 -0.37041,0.911778 -0.09973,0.470136 -0.09973,1.096984 v 0.256437 z m -0.683833,4.3167 q 0,-0.541368 0.142465,-0.911778 0.142465,-0.384657 0.384656,-0.612601 0.242191,-0.242191 0.569862,-0.341917 0.32767,-0.113972 0.712326,-0.113972 0.37041,0 0.698081,0.113972 0.341916,0.09973 0.584107,0.341917 0.242191,0.227944 0.384657,0.612601 0.142465,0.37041 0.142465,0.911778 0,0.527122 -0.142465,0.911778 -0.142466,0.37041 -0.384657,0.612601 -0.242191,0.242191 -0.584107,0.356163 -0.327671,0.113973 -0.698081,0.113973 -0.384656,0 -0.712326,-0.113973 -0.327671,-0.113972 -0.569862,-0.356163 -0.242191,-0.242191 -0.384656,-0.612601 -0.142465,-0.384656 -0.142465,-0.911778 z"
       id="text1"
       aria-label="?" /></g></svg>
