<?xml version="1.0" encoding="UTF-8" standalone="no"?>
<!-- Created with Inkscape (http://www.inkscape.org/) -->

<svg
   width="32.178688mm"
   height="32.181812mm"
   viewBox="0 0 32.178688 32.181812"
   version="1.1"
   id="svg1"
   xml:space="preserve"
   inkscape:version="1.4 (e7c3feb100, 2024-10-09)"
   sodipodi:docname="user.svg"
   xmlns:inkscape="http://www.inkscape.org/namespaces/inkscape"
   xmlns:sodipodi="http://sodipodi.sourceforge.net/DTD/sodipodi-0.dtd"
   xmlns="http://www.w3.org/2000/svg"
   xmlns:svg="http://www.w3.org/2000/svg"><sodipodi:namedview
     id="namedview1"
     pagecolor="#ffffff"
     bordercolor="#999999"
     borderopacity="1"
     inkscape:showpageshadow="0"
     inkscape:pageopacity="0"
     inkscape:pagecheckerboard="0"
     inkscape:deskcolor="#d1d1d1"
     inkscape:document-units="mm"
     inkscape:zoom="5.1628878"
     inkscape:cx="67.597828"
     inkscape:cy="44.645557"
     inkscape:window-width="1504"
     inkscape:window-height="1374"
     inkscape:window-x="1424"
     inkscape:window-y="0"
     inkscape:window-maximized="0"
     inkscape:current-layer="layer1" /><defs
     id="defs1" /><g
     inkscape:label="Ebene 1"
     inkscape:groupmode="layer"
     id="layer1"
     transform="translate(-41.93681,-39.901605)"><path
       style="fill:#ffffff;fill-rule:evenodd;stroke:none;stroke-width:0.12362;-inkscape-stroke:none;paint-order:fill markers stroke;opacity:0.62229102"
       d="m 56.218369,58.087262 c -3.447597,-0.927111 -5.371414,-4.720626 -4.195184,-8.272352 0.648535,-1.958303 2.381003,-3.531787 4.42949,-4.023006 0.992139,-0.237911 2.622233,-0.183854 3.593903,0.119182 2.629202,0.819972 4.31779,3.192706 4.31779,6.067177 0,2.254668 -1.173958,4.409652 -2.975906,5.462738 -1.361634,0.795762 -3.582042,1.073311 -5.170093,0.646261 z"
       id="path2" /><path
       style="fill:#ffffff;fill-rule:evenodd;stroke:none;stroke-width:0.134461;-inkscape-stroke:none;paint-order:fill markers stroke;opacity:0.49535604"
       d="m 56.335999,71.391526 c -3.033196,-0.303059 -5.650588,-1.237588 -8.092148,-2.889267 -1.695647,-1.147083 -2.290325,-1.69131 -2.287961,-2.093871 0.001,-0.177046 0.244596,-0.76716 0.541234,-1.311364 1.85617,-3.405273 4.982413,-5.698283 8.867366,-6.503959 1.820524,-0.377548 4.533143,-0.280176 6.25424,0.224501 2.370109,0.694986 4.133705,1.730142 5.779751,3.392465 1.185181,1.196902 2.758535,3.627806 2.758535,4.262064 0,0.444272 -2.409343,2.226342 -4.283129,3.168014 -2.757113,1.385586 -6.436736,2.061265 -9.537888,1.751417 z"
       id="path3" /><path
       style="fill:#ffffff;stroke-width:0.0543216;stroke:none"
       d="m 57.487183,72.079775 c -0.536913,-0.02657 -0.925493,-0.05674 -1.286347,-0.09978 -2.440952,-0.291323 -4.745947,-1.12902 -6.834167,-2.483718 -1.312561,-0.851509 -2.525625,-1.915944 -3.562242,-3.125793 -1.724155,-2.012289 -2.947864,-4.459726 -3.508146,-7.016353 -0.252115,-1.150421 -0.359471,-2.154834 -0.359471,-3.363185 0,-0.605978 0.01038,-0.881701 0.05032,-1.336653 0.229513,-2.614398 1.082823,-5.080834 2.533469,-7.322829 0.841549,-1.300626 1.917658,-2.526902 3.126022,-3.562241 2.012286,-1.724159 4.459724,-2.947863 7.016349,-3.508148 1.150422,-0.252117 2.154836,-0.35947 3.363185,-0.35947 0.718424,0 1.071207,0.01795 1.703152,0.08672 2.636432,0.286858 5.201087,1.257413 7.416255,2.806575 1.177325,0.823353 2.290314,1.844498 3.213565,2.948393 1.821843,2.178299 3.046502,4.796586 3.525965,7.53842 0.166544,0.95239 0.230407,1.703312 0.230407,2.709231 0,0.605977 -0.01038,0.881707 -0.05032,1.336653 -0.257749,2.936042 -1.320676,5.729723 -3.095121,8.134887 -0.748812,1.014969 -1.716794,2.042254 -2.696249,2.861431 -1.532833,1.282002 -3.303938,2.281491 -5.166946,2.915878 -1.32574,0.451442 -2.620349,0.711953 -4.038697,0.812699 -0.292829,0.02077 -1.345049,0.03893 -1.580985,0.02727 z m 1.185738,-1.730624 c 2.065059,-0.09507 3.980705,-0.575391 5.758473,-1.443843 1.30096,-0.635532 2.425392,-1.410918 3.500701,-2.414017 l 0.226002,-0.21082 -0.02353,-0.06048 c -0.07547,-0.193934 -0.273216,-0.621833 -0.419813,-0.908444 -1.665044,-3.255274 -4.753606,-5.388404 -8.395069,-5.798095 -0.48281,-0.05433 -0.703066,-0.0655 -1.293532,-0.0655 -0.852716,0 -1.442974,0.05546 -2.213427,0.207873 -3.03851,0.601187 -5.609469,2.43084 -7.179713,5.109537 -0.226289,0.386029 -0.576909,1.099056 -0.715274,1.454597 l -0.02353,0.06048 0.226001,0.210819 c 1.775735,1.656493 3.830046,2.78723 6.18344,3.403516 1.364727,0.357371 2.933088,0.520464 4.369267,0.454345 z M 46.761884,64.625278 c 0.936755,-1.803822 2.272523,-3.332988 3.965764,-4.539919 0.981362,-0.699517 2.14045,-1.297637 3.255877,-1.680134 l 0.218843,-0.07504 -0.190098,-0.125151 c -1.798702,-1.184152 -3.046341,-3.089144 -3.372688,-5.149672 -0.06173,-0.389774 -0.07824,-0.619508 -0.07824,-1.088733 0,-0.469225 0.01651,-0.698959 0.07824,-1.08874 0.37581,-2.372833 1.958783,-4.502952 4.168791,-5.609716 0.678489,-0.339786 1.398012,-0.572339 2.129046,-0.68812 0.38978,-0.06175 0.619513,-0.07824 1.088736,-0.07824 0.469223,0 0.698956,0.01653 1.088735,0.07824 2.372683,0.375791 4.503029,1.95893 5.609719,4.16879 0.404014,0.80675 0.640518,1.615669 0.741184,2.535085 0.03517,0.321238 0.03517,1.044163 0,1.365395 -0.05105,0.466229 -0.124969,0.847454 -0.246797,1.272774 -0.492318,1.71875 -1.646909,3.274327 -3.178865,4.282881 l -0.190006,0.125087 0.24031,0.08282 c 1.254329,0.432294 2.548371,1.131507 3.620583,1.956324 1.511383,1.162651 2.718038,2.597408 3.579373,4.256007 l 0.121255,0.233492 0.0758,-0.09695 c 0.236575,-0.302586 0.610391,-0.854703 0.858736,-1.268316 1.347436,-2.244149 2.052374,-4.821068 2.052374,-7.502492 0,-2.681421 -0.704938,-5.25834 -2.052374,-7.502489 -0.890865,-1.483728 -2.059585,-2.800216 -3.437766,-3.872423 -1.950039,-1.517098 -4.312651,-2.508695 -6.798235,-2.853242 -4.13895,-0.573724 -8.251208,0.573292 -11.357982,3.168037 -0.629959,0.526137 -1.260028,1.156208 -1.786165,1.786165 -1.698324,2.033457 -2.799767,4.533207 -3.168033,7.189931 -0.499205,3.601331 0.301386,7.198942 2.254863,10.132674 0.190598,0.286236 0.566573,0.811893 0.585373,0.818415 0.0013,4.38e-4 0.05694,-0.104279 0.123648,-0.232737 z m 11.695449,-6.923887 c 1.241351,-0.09083 2.321395,-0.501627 3.239155,-1.232041 0.223917,-0.178213 0.654183,-0.608479 0.832391,-0.832398 0.815442,-1.024592 1.246242,-2.293342 1.246242,-3.670325 0,-1.376983 -0.4308,-2.645737 -1.246242,-3.670336 -0.178208,-0.223912 -0.608474,-0.654178 -0.832391,-0.83239 -1.024888,-0.815674 -2.292958,-1.246244 -3.670333,-1.246244 -1.377376,0 -2.645446,0.43057 -3.670333,1.246244 -0.223917,0.178212 -0.654183,0.608478 -0.832391,0.83239 -0.815676,1.024889 -1.246242,2.292958 -1.246242,3.670336 0,1.377371 0.430566,2.645443 1.246242,3.670325 0.178208,0.223919 0.608474,0.654185 0.832391,0.832398 0.907519,0.72226 1.997863,1.140324 3.21041,1.230939 0.223636,0.01667 0.670203,0.01724 0.891101,0.0014 z"
       id="path1" /></g></svg>
